<svg xmlns="http://www.w3.org/2000/svg"><symbol id="fb" viewBox="0 0 25 25"><path fill="currentColor" d="M14.956 13.314l4.544.002V9.1h-4.544V5.987c0-.671.118-1.149.354-1.437.236-.287.702-.431 1.397-.431h2.65l.095-3.927C18.664.064 17.702 0 16.565 0c-1.957 0-3.448.527-4.474 1.581-1.026 1.054-1.538 2.347-1.538 3.879V9.1H5.5v4.215h5.054V25h4.402V13.314z"/></symbol><symbol id="inst" viewBox="0 0 25 25"><path fill="currentColor" d="M21 0H4a4 4 0 0 0-4 4.001V21a4 4 0 0 0 4 4h17a4 4 0 0 0 4-4V4.001A4 4 0 0 0 21 0zm1.5 21c0 .828-.674 1.5-1.5 1.5H4A1.5 1.5 0 0 1 2.5 21V4.001C2.5 3.173 3.172 2.5 4 2.5h17c.826 0 1.5.673 1.5 1.501V21zm-10-15.333c-3.769 0-6.834 3.065-6.834 6.833s3.065 6.832 6.834 6.832c3.768 0 6.832-3.064 6.832-6.832S16.268 5.667 12.5 5.667zm0 11.165A4.337 4.337 0 0 1 8.166 12.5 4.337 4.337 0 0 1 12.5 8.167a4.337 4.337 0 0 1 4.332 4.333 4.336 4.336 0 0 1-4.332 4.332z"/><circle fill="currentColor" cx="19.749" cy="5.584" r="1.333"/></symbol><symbol id="vk" viewBox="0 0 25 25"><path fill="currentColor" d="M16.288 11.341c.8-.974 1.514-2.149 2.142-3.527.361-.771.704-1.269 1.028-1.488.114-.093 1.085-.138 2.912-.138l.557-.014.672-.015c.171 0 .36.01.57.028.209.018.376.059.5.124a.612.612 0 0 1 .271.261c.151.331-.058.983-.628 1.957-.343.552-.853 1.254-1.528 2.108-.676.855-1.138 1.466-1.385 1.833-.324.423-.476.717-.457.883l.029.206.099.206.129.193.157.193.171.179.2.192.186.181c1.161 1.121 1.903 1.874 2.228 2.26.608.735.894 1.277.856 1.626-.077.551-.742.846-1.998.882-1.961.074-3.218 0-3.77-.221a3.347 3.347 0 0 1-.499-.303 3.844 3.844 0 0 1-.443-.358l-.457-.455-.399-.399c-.153-.184-.419-.46-.8-.826l-.2-.208-.242-.233-.229-.125a.824.824 0 0 0-.328-.068c-.381.019-.647.395-.8 1.13l-.058.565a8.906 8.906 0 0 1-.07.648c-.028.183-.081.321-.157.413-.19.257-.634.395-1.328.413a10.724 10.724 0 0 1-1.927-.11c-.59-.092-1.056-.193-1.399-.303-1.199-.368-2.189-.882-2.97-1.544-.781-.661-1.589-1.552-2.427-2.674-1.447-1.911-2.769-4.124-3.969-6.642a2.7 2.7 0 0 0-.2-.372 2.297 2.297 0 0 1-.2-.386L.027 7s-.033-.354.043-.428c.057-.092.143-.169.257-.233s.271-.11.471-.138l.542-.056.643-.014h.571c1.294-.036 2.16.092 2.598.386a.768.768 0 0 1 .257.262c.076.12.133.23.171.331l.171.427.171.441a16.543 16.543 0 0 0 1.885 3.143l.143.206.157.234.171.192.2.193.2.125.243.095.257.028c.4-.056.6-.864.6-2.426 0-1.304-.114-2.122-.343-2.452-.095-.147-.314-.28-.657-.4-.342-.118-.513-.242-.513-.371 0-.238.229-.468.686-.688.266-.128.675-.229 1.228-.303 2.474-.147 3.892.009 4.254.468.209.294.323.73.342 1.31.02.579 0 1.245-.057 1.998-.058.754-.076 1.314-.058 1.682.039.734.2 1.148.486 1.239.191.055.571-.249 1.142-.91z"/></symbol></svg>