<svg xmlns="http://www.w3.org/2000/svg" viewBox="0 0 25 25"><path fill="currentColor" d="M21 0h-17c-2.209 0-4 1.791-4 4.001v16.999c0 2.209 1.791 4 4 4h17c2.209 0 4-1.791 4-4v-16.999c0-2.21-1.791-4.001-4-4.001zm1.5 21c0 .828-.674 1.5-1.5 1.5h-17c-.828 0-1.5-.672-1.5-1.5v-16.999c0-.828.672-1.501 1.5-1.501h17c.826 0 1.5.673 1.5 1.501v16.999zm-10-15.333c-3.769 0-6.834 3.065-6.834 6.833s3.065 6.832 6.834 6.832c3.768 0 6.832-3.064 6.832-6.832s-3.064-6.833-6.832-6.833zm0 11.165c-2.391 0-4.334-1.943-4.334-4.332 0-2.39 1.943-4.333 4.334-4.333 2.389 0 4.332 1.943 4.332 4.333 0 2.389-1.943 4.332-4.332 4.332z"/><circle fill="currentColor" cx="19.749" cy="5.584" r="1.333"/></svg>