<svg xmlns="http://www.w3.org/2000/svg" viewBox="0 0 25 25"><path fill="currentColor" d="M16.288 11.341c.8-.974 1.514-2.149 2.142-3.527.361-.771.704-1.269 1.028-1.488.114-.093 1.085-.138 2.912-.138l.557-.014.672-.015c.171 0 .36.01.57.028.209.018.376.059.5.124.123.064.214.151.271.261.151.331-.058.983-.628 1.957-.343.552-.853 1.254-1.528 2.108-.676.855-1.138 1.466-1.385 1.833-.324.423-.476.717-.457.883l.029.206.099.206.129.193.157.193.171.179.2.192.186.181c1.161 1.121 1.903 1.874 2.228 2.26.608.735.894 1.277.856 1.626-.077.551-.742.846-1.998.882-1.961.074-3.218 0-3.77-.221-.153-.073-.319-.174-.499-.303-.182-.129-.329-.248-.443-.358l-.457-.455-.399-.399c-.153-.184-.419-.46-.8-.826l-.2-.208-.242-.233-.229-.125c-.105-.045-.214-.068-.328-.068-.381.019-.647.395-.8 1.13l-.058.565c-.019.247-.042.465-.07.648-.028.183-.081.321-.157.413-.19.257-.634.395-1.328.413-.695.019-1.338-.019-1.927-.11-.59-.092-1.056-.193-1.399-.303-1.199-.368-2.189-.882-2.97-1.544-.781-.661-1.589-1.552-2.427-2.674-1.447-1.911-2.769-4.124-3.969-6.642-.019-.056-.085-.18-.2-.372-.114-.193-.181-.321-.2-.386l-.1-.413s-.033-.354.043-.428c.057-.092.143-.169.257-.233s.271-.11.471-.138l.542-.056.643-.014h.571c1.294-.036 2.16.092 2.598.386.096.055.181.143.257.262.076.12.133.23.171.331l.171.427.171.441c.514 1.121 1.142 2.168 1.885 3.143l.143.206.157.234.171.192.2.193.2.125.243.095.257.028c.4-.056.6-.864.6-2.426 0-1.304-.114-2.122-.343-2.452-.095-.147-.314-.28-.657-.4-.342-.118-.513-.242-.513-.371 0-.238.229-.468.686-.688.266-.128.675-.229 1.228-.303 2.474-.147 3.892.009 4.254.468.209.294.323.73.342 1.31.02.579 0 1.245-.057 1.998-.058.754-.076 1.314-.058 1.682.039.734.2 1.148.486 1.239.191.055.571-.249 1.142-.91z"/></svg>