<svg id="Layer_1" data-name="Layer 1" xmlns="http://www.w3.org/2000/svg" viewBox="0 0 223.27 58.88"><defs><style>.cls-1{fill:none;stroke:#231f20;stroke-width:0.92px;}.cls-2{fill:#231f20;}</style></defs><title>iPort_logo</title><line class="cls-1" x1="157.47" x2="157.47" y2="58.84"/><path class="cls-2" d="M220.77,53.81a2.89,2.89,0,0,0-.42,0,1.21,1.21,0,0,0-1.09.56,2,2,0,0,0-.35,1.21v3.22h-1.38V54.54c0-.69,0-1.34,0-1.93h1.18l.06,1.17h0a2.13,2.13,0,0,1,.69-1,1.7,1.7,0,0,1,1-.32,2,2,0,0,1,.35,0v1.3Zm-4.52,1.59a3.53,3.53,0,0,1,0,.6h-4a1.79,1.79,0,0,0,.59,1.4,2,2,0,0,0,1.34.43,4.43,4.43,0,0,0,1.65-.28l.16,1a4.71,4.71,0,0,1-2,.38,3,3,0,0,1-2.25-.84,3.1,3.1,0,0,1-.8-2.26,3.57,3.57,0,0,1,.74-2.32,2.6,2.6,0,0,1,2.15-1,2.31,2.31,0,0,1,2,1,4.28,4.28,0,0,1,.45,1.94ZM215,55a2,2,0,0,0-.27-1,1.21,1.21,0,0,0-1.09-.56,1.34,1.34,0,0,0-1.09.55,2,2,0,0,0-.41,1.06Zm-5.48,3.72h-1.43v-9h1.43v9Zm-2.88,0h-1.37v-9h1.38v9Zm-2.63-3.36a4.39,4.39,0,0,1,0,.6h-4a1.79,1.79,0,0,0,.6,1.4,1.44,1.44,0,0,0,1.18.43,4.51,4.51,0,0,0,1.67-.28l.21,1a5.19,5.19,0,0,1-2.06.38,2.78,2.78,0,0,1-2.08-.84,3.11,3.11,0,0,1-.82-2.26,3.53,3.53,0,0,1,.75-2.32,2.54,2.54,0,0,1,2-1,2.28,2.28,0,0,1,2,1,3.28,3.28,0,0,1,.55,1.94Zm-1.3-.36a2,2,0,0,0-.28-1,1.21,1.21,0,0,0-1.09-.56c-.43,0-.63.19-.93.55A2.18,2.18,0,0,0,200,55Zm-4.94,2a1.73,1.73,0,0,1-.62,1.37,2.7,2.7,0,0,1-1.74.52,3.53,3.53,0,0,1-1.78-.42l.29-1a2.94,2.94,0,0,0,1.52.41c.68,0,1-.25,1-.75a.81.81,0,0,0-.24-.58,2.6,2.6,0,0,0-.81-.42c-1.09-.41-1.64-1-1.64-1.76a1.76,1.76,0,0,1,.6-1.33,2.45,2.45,0,0,1,1.62-.52,3.07,3.07,0,0,1,1.55.36l-.29,1a2.51,2.51,0,0,0-1.25-.34,1,1,0,0,0-.67.2.66.66,0,0,0,0,1,2.75,2.75,0,0,0,.83.42c1.08.4,1.6,1,1.6,1.86Zm-4.93-1.6a2.71,2.71,0,0,1-.06.6h-4.1a1.73,1.73,0,0,0,.59,1.4,2,2,0,0,0,1.33.43,4.57,4.57,0,0,0,1.67-.28l.2,1a5.14,5.14,0,0,1-2.06.38,3,3,0,0,1-2.24-.84,3.13,3.13,0,0,1-.81-2.26,3.49,3.49,0,0,1,.76-2.32,2.6,2.6,0,0,1,2.14-1,2.32,2.32,0,0,1,2,1,3.49,3.49,0,0,1,.55,1.94ZM191.57,55a1.77,1.77,0,0,0-.28-1,1.21,1.21,0,0,0-1.09-.56,1.31,1.31,0,0,0-1.07.55,2,2,0,0,0-.41,1.06ZM187,58.76h-1.46a11.5,11.5,0,0,1-.55-2,2.16,2.16,0,0,0-.54-1.2,1.39,1.39,0,0,0-1-.36h-.83v3.59h-1.39V50.35a12.45,12.45,0,0,1,2.22-.17,3.87,3.87,0,0,1,2.54.67,2.18,2.18,0,0,1,.23,3.06,2.41,2.41,0,0,1-1.09.76v0a2.23,2.23,0,0,1,1.23,1.69c.19.71.3,1.2.39,1.46a4.06,4.06,0,0,0,.29.9Zm-1.71-6.1c0-1-.58-1.46-1.73-1.47a3.94,3.94,0,0,0-1,.09v2.89h.95a1.87,1.87,0,0,0,1.27-.42,1.35,1.35,0,0,0,.48-1.1Zm38-7.14h-1.33V42.08c0-1.15-.38-1.71-1.17-1.71a1.06,1.06,0,0,0-.88.42,1.51,1.51,0,0,0-.34,1v3.75h-1.32V41.88a1.88,1.88,0,0,0-.3-1.1,1,1,0,0,0-.84-.41,1.09,1.09,0,0,0-.91.45,1.59,1.59,0,0,0-.31,1v3.66h-1.3V41.14c0-.54,0-1.13,0-1.76h1.16l.07.91h0a1.84,1.84,0,0,1,1.78-1,1.66,1.66,0,0,1,1.7,1.15h0a2.53,2.53,0,0,1,.72-.78,2.25,2.25,0,0,1,1.25-.36,1.78,1.78,0,0,1,1.34.56,2.86,2.86,0,0,1,.65,2.06v3.64Zm-10.1,0H212l-.07-.93h0a2.12,2.12,0,0,1-2,1.08,2,2,0,0,1-1.5-.57,3,3,0,0,1-.65-2.09V39.38h1.43v3.38c0,1.18.41,1.76,1.21,1.76a1.27,1.27,0,0,0,1.26-.87,1.43,1.43,0,0,0,.08-.52V39.38h1.36v4.38c0,.57,0,1.16.06,1.75Zm-6.68-8a.76.76,0,0,1-.24.58.88.88,0,0,1-.62.24.81.81,0,0,1-.8-.82.81.81,0,0,1,.24-.59.85.85,0,0,1,.59-.22.87.87,0,0,1,.59.22.84.84,0,0,1,.24.59Zm-.16,8H205V39.38h1.37v6.13Zm-3,0h-1.33V42.08c0-1.15-.38-1.71-1.09-1.71a1.05,1.05,0,0,0-.8.42,1.59,1.59,0,0,0-.33,1v3.75h-1.31V41.88a1.89,1.89,0,0,0-.3-1.1.93.93,0,0,0-.83-.41,1.08,1.08,0,0,0-.91.45,1.59,1.59,0,0,0-.37,1v3.66h-1.32V41.14c0-.54,0-1.13,0-1.76h1.15l.08.91h0a2,2,0,0,1,1.86-1,1.66,1.66,0,0,1,1.69,1.15h0a2.37,2.37,0,0,1,.73-.78,1.85,1.85,0,0,1,2.43.2,2.87,2.87,0,0,1,.65,2.06v3.64Zm-10.18-5.3a2.33,2.33,0,0,0-2-1,2.63,2.63,0,0,0-2.14,1,3.52,3.52,0,0,0-.76,2.31A3.13,3.13,0,0,0,189,44.8a3,3,0,0,0,2.25.84,5.18,5.18,0,0,0,2-.37l-.2-1a4.56,4.56,0,0,1-1.66.28,2,2,0,0,1-1.34-.43,1.77,1.77,0,0,1-.61-1.39h4.11a2.77,2.77,0,0,0,.05-.62,3.44,3.44,0,0,0-.54-1.94Zm-3.62,1.58a2,2,0,0,1,.4-1.06,1.32,1.32,0,0,1,1.09-.57,1.23,1.23,0,0,1,1.09.58,1.85,1.85,0,0,1,.27,1Zm-1.86-1.22a1.36,1.36,0,0,0-.35,0,1.38,1.38,0,0,0-1.14.55,2,2,0,0,0-.35,1.2v3.22h-1.37V41.3c0-.7,0-1.34,0-1.92h1.19l0,1.17h.05a1.85,1.85,0,0,1,.7-1,1.7,1.7,0,0,1,1-.34,1.14,1.14,0,0,1,.27,0v1.29Zm-4.15-1.11a2.51,2.51,0,0,1-.69,1.88,3.4,3.4,0,0,1-2.6.93,5.45,5.45,0,0,1-.77,0v3.28h-1.23V37.12a8.56,8.56,0,0,1,2.07-.19,3.65,3.65,0,0,1,2.43.69,2.3,2.3,0,0,1,.79,1.85Zm-1.34.09a1.46,1.46,0,0,0-.48-1.17,1.94,1.94,0,0,0-1.33-.4,4.12,4.12,0,0,0-.9.07v3.07a3.35,3.35,0,0,0,.78.07,2.12,2.12,0,0,0,1.42-.44,1.52,1.52,0,0,0,.52-1.21Z"/><path class="cls-2" d="M204.83,4.75A6.48,6.48,0,0,0,206.36,0a6.24,6.24,0,0,0-4.3,2.25,5.93,5.93,0,0,0-1.43,4.52,5.33,5.33,0,0,0,4.2-2.07Z"/><path class="cls-2" d="M212.46,21.35a16.6,16.6,0,0,1-2,4.2c-1.25,1.82-2.57,3.56-4.52,3.61S203.32,28,201.09,28c-2.08,0-2.79,1.08-4.64,1.15s-3.37-1.87-4.63-3.7c-2.5-3.66-4.41-10.22-1.86-14.56A7.16,7.16,0,0,1,196,7.25c1.9-.06,3.67,1.26,4.79,1.26s3.2-1.58,5.52-1.35a6.83,6.83,0,0,1,5.34,2.92,6.52,6.52,0,0,0-3.19,5.41,6.3,6.3,0,0,0,4,5.85Z"/><path class="cls-2" d="M9.28,49.94v-29h-9v29ZM4.82,8.32a4.52,4.52,0,1,0-.12,9c3,0,4.88-2,4.88-4.51A4.47,4.47,0,0,0,4.82,8.32Zm12,41.62h9V35.57a15.57,15.57,0,0,0,3.09.24c5.35,0,9.93-1.37,13-4.22,2.44-2.2,3.69-5.58,3.69-9.5a11.52,11.52,0,0,0-4.28-9.26c-2.68-2.14-6.66-3.21-12.25-3.21a74.28,74.28,0,0,0-12.25.83V49.94Zm9-33.13a16.17,16.17,0,0,1,3.69-.3c4.58,0,7.14,2.2,7.14,5.88,0,4-3,6.47-7.79,6.47a13.52,13.52,0,0,1-3-.24V16.81Zm37.76,3.38c-9.4,0-15.58,6-15.58,15.44s6.54,15,15,15c7.79,0,15.34-4.87,15.34-15.5,0-8.79-5.95-14.9-14.81-14.9Zm-.3,6.47c4.1,0,5.77,4.39,5.77,8.67,0,5.28-2.2,8.79-5.77,8.79-3.86,0-5.95-3.74-5.95-8.73,0-4.27,1.67-8.73,5.95-8.73ZM84,49.94h9V35.21a10.65,10.65,0,0,1,.18-2c.59-2.79,2.85-4.57,6.18-4.57a13.49,13.49,0,0,1,2.44.24V20.37a9,9,0,0,0-1.9-.18A8.47,8.47,0,0,0,92,26.25h-.24l-.36-5.34H83.72c.18,2.49.24,5.28.24,9.56V49.94ZM109.05,15.5v5.4h-3.86v6.65h3.86V39.43c0,4.1.83,6.89,2.5,8.61a9.67,9.67,0,0,0,6.84,2.49,19,19,0,0,0,5.83-.77l-.06-6.83a11.14,11.14,0,0,1-2.68.24c-2.68,0-3.57-1.6-3.57-5.11V27.55h6.48V20.9h-6.48V13.07l-8.86,2.43Z"/><path class="cls-2" d="M124.81,13.52h.46c.54,0,.8.21.87.64a3.33,3.33,0,0,0,.34,1h1a3.72,3.72,0,0,1-.31-1c-.13-.57-.33-.9-.75-1v-.05a1.09,1.09,0,0,0,.88-1,1.06,1.06,0,0,0-.44-.9,2.24,2.24,0,0,0-1.44-.33,11.43,11.43,0,0,0-1.62.13V15.2h1V13.52Zm0-1.9a2.31,2.31,0,0,1,.54-.05c.62,0,.9.26.9.64s-.44.62-1,.62h-.46V11.62Zm.67-2.83A4.23,4.23,0,1,0,129.8,13a4.26,4.26,0,0,0-4.3-4.22Zm-.05.85a3.29,3.29,0,0,1,3.27,3.4,3.23,3.23,0,0,1-3.22,3.34A3.28,3.28,0,0,1,122.21,13a3.29,3.29,0,0,1,3.24-3.37Z"/></svg>